<svg id="Calque_1" data-name="Calque 1" xmlns="http://www.w3.org/2000/svg" viewBox="0 0 48 48"><defs><style>.cls-1{fill:#1680b3;stroke:#1680b3;stroke-miterlimit:10;stroke-width:2px;}</style></defs><path class="cls-1" d="M24,44a19.19,19.19,0,0,1-7.75-1.58,20.14,20.14,0,0,1-6.37-4.29,20.36,20.36,0,0,1-4.31-6.38,20,20,0,0,1,0-15.55A20,20,0,0,1,9.88,9.85a20.43,20.43,0,0,1,6.37-4.27A19.36,19.36,0,0,1,24,4a19.62,19.62,0,0,1,7.8,1.57,20.42,20.42,0,0,1,6.35,4.28,20.05,20.05,0,0,1,4.27,6.35A19.29,19.29,0,0,1,44,24a19.19,19.19,0,0,1-1.58,7.75,20.42,20.42,0,0,1-4.27,6.38,19.94,19.94,0,0,1-6.35,4.29A19.29,19.29,0,0,1,24,44Zm0-3a16.38,16.38,0,0,0,12-5,16.44,16.44,0,0,0,5-12,16.41,16.41,0,0,0-5-12A16.41,16.41,0,0,0,24,7,16.4,16.4,0,0,0,12,12,16.36,16.36,0,0,0,7,24a16.39,16.39,0,0,0,5,12A16.38,16.38,0,0,0,24,41Z"/></svg>