<svg xmlns="http://www.w3.org/2000/svg" viewBox="0 0 40 40"><defs><style>.cls-1{fill:#fff;opacity:0.98;}</style></defs><title>date heure</title><g id="Layer_2" data-name="Layer 2"><g id="Layer_1-2" data-name="Layer 1"><path class="cls-1" d="M35.41,25V6.56a3.28,3.28,0,0,0-3.28-3.28H30.82V2a2,2,0,1,0-3.93,0V3.28H23.61V2a2,2,0,1,0-3.94,0V3.28H15.74V2A2,2,0,0,0,11.8,2V3.28H8.52V2A2,2,0,1,0,4.59,2V3.28H3.28A3.28,3.28,0,0,0,0,6.56V32.79a3.29,3.29,0,0,0,3.28,3.28h22A7.86,7.86,0,1,0,35.41,25ZM28.2,2a.66.66,0,0,1,.65-.66.67.67,0,0,1,.66.66V5.9a.67.67,0,0,1-.66.66.66.66,0,0,1-.65-.66ZM21,2A.66.66,0,1,1,22.3,2V5.9A.66.66,0,1,1,21,5.9ZM13.11,2a.66.66,0,0,1,1.32,0V5.9a.66.66,0,1,1-1.32,0ZM5.9,2a.67.67,0,0,1,.66-.66A.66.66,0,0,1,7.21,2V5.9a.66.66,0,0,1-.65.66A.67.67,0,0,1,5.9,5.9ZM3.28,4.59H4.59V5.9a2,2,0,1,0,3.93,0V4.59H11.8V5.9a2,2,0,0,0,3.94,0V4.59h3.93V5.9a2,2,0,1,0,3.94,0V4.59h3.28V5.9a2,2,0,1,0,3.93,0V4.59h1.31a2,2,0,0,1,2,2V9.84H1.31V6.56A2,2,0,0,1,3.28,4.59Zm0,30.16a2,2,0,0,1-2-2V11.15H34.1V24.52a7.44,7.44,0,0,0-3.28-.14V21a.65.65,0,0,0-.66-.65H26.23a.66.66,0,0,0-.66.65v3.94a.66.66,0,0,0,.66.65h1.56a7.82,7.82,0,0,0-3.07,9.18ZM29.51,24.26H26.89V21.64h2.62Zm2.62,14.43a6.56,6.56,0,1,1,6.56-6.56A6.57,6.57,0,0,1,32.13,38.69Z"/><path class="cls-1" d="M32.79,31V26.89H31.48V31a1.32,1.32,0,0,0-.66,1.13,1.11,1.11,0,0,0,0,.19l-2.4,1.92.82,1,2.4-1.92a1.19,1.19,0,0,0,.47.09A1.31,1.31,0,0,0,32.79,31Z"/><path class="cls-1" d="M8.52,13.11H4.59a.67.67,0,0,0-.66.66V17.7a.66.66,0,0,0,.66.66H8.52a.65.65,0,0,0,.66-.66V13.77A.66.66,0,0,0,8.52,13.11Zm-.65,3.94H5.25V14.43H7.87Z"/><path class="cls-1" d="M15.74,13.11H11.8a.66.66,0,0,0-.65.66V17.7a.65.65,0,0,0,.65.66h3.94a.65.65,0,0,0,.65-.66V13.77A.66.66,0,0,0,15.74,13.11Zm-.66,3.94H12.46V14.43h2.62Z"/><path class="cls-1" d="M23,13.11H19a.66.66,0,0,0-.66.66V17.7a.65.65,0,0,0,.66.66H23a.66.66,0,0,0,.66-.66V13.77A.67.67,0,0,0,23,13.11Zm-.65,3.94H19.67V14.43H22.3Z"/><path class="cls-1" d="M26.23,18.36h3.93a.65.65,0,0,0,.66-.66V13.77a.66.66,0,0,0-.66-.66H26.23a.67.67,0,0,0-.66.66V17.7A.66.66,0,0,0,26.23,18.36Zm.66-3.93h2.62v2.62H26.89Z"/><path class="cls-1" d="M8.52,20.33H4.59a.66.66,0,0,0-.66.65v3.94a.66.66,0,0,0,.66.65H8.52a.65.65,0,0,0,.66-.65V21A.65.65,0,0,0,8.52,20.33Zm-.65,3.93H5.25V21.64H7.87Z"/><path class="cls-1" d="M15.74,20.33H11.8a.65.65,0,0,0-.65.65v3.94a.65.65,0,0,0,.65.65h3.94a.65.65,0,0,0,.65-.65V21A.65.65,0,0,0,15.74,20.33Zm-.66,3.93H12.46V21.64h2.62Z"/><path class="cls-1" d="M23,20.33H19a.65.65,0,0,0-.66.65v3.94a.65.65,0,0,0,.66.65H23a.66.66,0,0,0,.66-.65V21A.66.66,0,0,0,23,20.33Zm-.65,3.93H19.67V21.64H22.3Z"/><path class="cls-1" d="M8.52,27.54H4.59a.66.66,0,0,0-.66.66v3.93a.67.67,0,0,0,.66.66H8.52a.66.66,0,0,0,.66-.66V28.2A.65.65,0,0,0,8.52,27.54Zm-.65,3.94H5.25V28.85H7.87Z"/><path class="cls-1" d="M15.74,27.54H11.8a.65.65,0,0,0-.65.66v3.93a.66.66,0,0,0,.65.66h3.94a.66.66,0,0,0,.65-.66V28.2A.65.65,0,0,0,15.74,27.54Zm-.66,3.94H12.46V28.85h2.62Z"/><path class="cls-1" d="M23,27.54H19a.65.65,0,0,0-.66.66v3.93a.66.66,0,0,0,.66.66H23a.67.67,0,0,0,.66-.66V28.2A.66.66,0,0,0,23,27.54Zm-.65,3.94H19.67V28.85H22.3Z"/></g></g></svg>