<svg xmlns="http://www.w3.org/2000/svg" viewBox="0 0 39.73 39.73"><defs><style>.cls-1{fill:#fff;}</style></defs><title>se connecter</title><g id="Layer_2" data-name="Layer 2"><g id="Layer_1-2" data-name="Layer 1"><path class="cls-1" d="M19.87,0A19.87,19.87,0,0,0,8.22,36h0a19.88,19.88,0,0,0,23.24,0h0A19.87,19.87,0,0,0,19.87,0ZM9.41,35V33.69A9.66,9.66,0,0,1,19.07,24h1.58a9.67,9.67,0,0,1,9.68,9.67h0V35A18.36,18.36,0,0,1,9.41,35ZM19.92,22.52h-.1a6.59,6.59,0,0,1-6.57-6.58c0-.17,0-.35,0-.52a6.62,6.62,0,0,1,13.19,0,4.35,4.35,0,0,1,0,.51,6.58,6.58,0,0,1-6.56,6.58Zm11.9,11.3v-.13a11.17,11.17,0,0,0-8-10.71,8.06,8.06,0,0,0,4.15-7q0-.33,0-.63a8.1,8.1,0,0,0-16.15,0c0,.21,0,.42,0,.64a8,8,0,0,0,4.16,7,11.16,11.16,0,0,0-8,10.71v.13a18.38,18.38,0,1,1,25.91-2A19.07,19.07,0,0,1,31.82,33.82Z"/></g></g></svg>